<svg width="48" height="48" viewBox="0 0 48 48" fill="none" xmlns="http://www.w3.org/2000/svg">
<rect width="48" height="48" rx="6" fill="#234338"/>
<path d="M19.5364 18.2636C19.1849 17.9121 18.6151 17.9121 18.2636 18.2636C17.9121 18.6151 17.9121 19.1849 18.2636 19.5364L22.7272 24L18.2636 28.4636C17.9121 28.8151 17.9121 29.3849 18.2636 29.7364C18.6151 30.0879 19.1849 30.0879 19.5364 29.7364L24 25.2728L28.4636 29.7364C28.8151 30.0879 29.3849 30.0879 29.7364 29.7364C30.0879 29.3849 30.0879 28.8151 29.7364 28.4636L25.2728 24L29.7364 19.5364C30.0879 19.1849 30.0879 18.6151 29.7364 18.2636C29.3849 17.9121 28.8151 17.9121 28.4636 18.2636L24 22.7272L19.5364 18.2636Z" fill="white"/>
</svg>
